<svg data-v-423bf9ae="" xmlns="http://www.w3.org/2000/svg" viewBox="0 0 446 90" class="iconLeft"><!----><!----><!----><g data-v-423bf9ae="" id="262995a5-d974-4401-a479-8333f463c539" fill="white" transform="matrix(5.756144886606401,0,0,5.756144886606401,92.67285091789236,-3.8680363043843684)"><path d="M0.70 7.81L0.70 6.26L1.34 6.26L1.34 6.26Q1.34 5.89 1.34 5.54L1.34 5.54L1.34 5.54Q1.33 5.18 1.36 4.87L1.36 4.87L1.36 4.87Q1.40 4.55 1.48 4.28L1.48 4.28L1.48 4.28Q1.55 4.02 1.72 3.81L1.72 3.81L1.72 3.81Q1.92 3.57 2.25 3.44L2.25 3.44L2.25 3.44Q2.58 3.30 3.11 3.28L3.11 3.28L3.11 3.28Q3.68 3.26 4.16 3.43L4.16 3.43L4.16 3.43Q4.63 3.60 4.89 3.90L4.89 3.90L4.89 3.90Q5.15 4.20 5.15 4.59L5.15 4.59L5.15 4.59Q5.14 4.98 4.75 5.42L4.75 5.42L4.75 5.42Q4.65 5.14 4.39 4.97L4.39 4.97L4.39 4.97Q4.13 4.80 3.86 4.79L3.86 4.79L3.86 4.79Q3.58 4.77 3.37 4.92L3.37 4.92L3.37 4.92Q3.16 5.07 3.16 5.42L3.16 5.42L3.16 6.26L4.96 6.26L4.96 6.26Q4.96 6.96 4.56 7.39L4.56 7.39L4.56 7.39Q4.17 7.81 3.58 7.81L3.58 7.81L3.16 7.81L3.16 13.52L1.34 13.52L1.34 7.81L0.70 7.81ZM6.27 13.52L6.27 7.74L6.27 7.74Q6.30 7.32 6.45 7.04L6.45 7.04L6.45 7.04Q6.59 6.76 6.83 6.59L6.83 6.59L6.83 6.59Q7.07 6.43 7.38 6.35L7.38 6.35L7.38 6.35Q7.70 6.27 8.08 6.27L8.08 6.27L8.08 13.52L6.27 13.52ZM7.18 3.29L7.18 3.29L7.18 3.29Q7.66 3.29 7.99 3.64L7.99 3.64L7.99 3.64Q8.34 3.98 8.34 4.47L8.34 4.47L8.34 4.47Q8.34 4.96 8.01 5.31L8.01 5.31L8.01 5.31Q7.81 5.50 7.55 5.58L7.55 5.58L7.55 5.58Q7.29 5.66 7.04 5.73L7.04 5.73L7.04 5.73Q6.78 5.81 6.56 5.92L6.56 5.92L6.56 5.92Q6.34 6.02 6.26 6.26L6.26 6.26L6.26 6.26Q6.19 6.03 6.11 5.68L6.11 5.68L6.11 5.68Q6.03 5.33 6.01 4.96L6.01 4.96L6.01 4.96Q5.99 4.58 6.05 4.22L6.05 4.22L6.05 4.22Q6.12 3.86 6.36 3.63L6.36 3.63L6.36 3.63Q6.69 3.29 7.18 3.29ZM9.74 13.52L9.74 6.24L11.31 6.24L11.31 7.17L11.31 7.17Q11.55 6.68 11.92 6.39L11.92 6.39L11.92 6.39Q12.29 6.10 12.74 6.08L12.74 6.08L12.74 6.08Q13.33 6.03 13.69 6.29L13.69 6.29L13.69 6.29Q14.06 6.55 14.20 6.92L14.20 6.92L14.20 6.92Q14.35 7.29 14.28 7.68L14.28 7.68L14.28 7.68Q14.21 8.06 13.90 8.29L13.90 8.29L13.90 8.29Q13.78 7.94 13.42 7.83L13.42 7.83L13.42 7.83Q13.06 7.73 12.67 7.86L12.67 7.86L12.67 7.86Q12.28 7.99 11.96 8.36L11.96 8.36L11.96 8.36Q11.65 8.72 11.59 9.31L11.59 9.31L11.59 9.31Q11.56 9.65 11.56 9.98L11.56 9.98L11.56 9.98Q11.56 10.30 11.56 10.58L11.56 10.58L11.56 13.52L9.74 13.52ZM20.65 10.72L20.65 10.72L20.65 10.72Q19.89 10.92 19.27 10.86L19.27 10.86L19.27 10.86Q18.65 10.81 18.25 10.56L18.25 10.56L18.25 10.56Q17.85 10.32 17.72 9.91L17.72 9.91L17.72 9.91Q17.58 9.49 17.79 8.97L17.79 8.97L17.79 8.97Q18.23 9.34 18.80 9.37L18.80 9.37L18.80 9.37Q19.38 9.41 19.91 9.35L19.91 9.35L19.91 9.35Q20.36 9.31 20.59 9.16L20.59 9.16L20.59 9.16Q20.82 9.00 20.87 8.80L20.87 8.80L20.87 8.80Q20.93 8.60 20.83 8.37L20.83 8.37L20.83 8.37Q20.73 8.15 20.52 7.97L20.52 7.97L20.52 7.97Q20.30 7.78 19.98 7.67L19.98 7.67L19.98 7.67Q19.67 7.56 19.29 7.57L19.29 7.57L19.29 7.57Q18.89 7.60 18.52 7.77L18.52 7.77L18.52 7.77Q18.16 7.94 17.88 8.23L17.88 8.23L17.88 8.23Q17.60 8.53 17.43 8.92L17.43 8.92L17.43 8.92Q17.26 9.31 17.25 9.79L17.25 9.79L17.25 9.79Q17.23 10.18 17.34 10.56L17.34 10.56L17.34 10.56Q17.44 10.93 17.65 11.25L17.65 11.25L17.65 11.25Q17.86 11.56 18.16 11.78L18.16 11.78L18.16 11.78Q18.45 12.00 18.83 12.05L18.83 12.05L18.83 12.05Q19.36 12.15 19.92 11.98L19.92 11.98L19.92 11.98Q20.48 11.82 20.92 11.37L20.92 11.37L22.39 12.08L22.39 12.08Q21.81 12.94 21.03 13.31L21.03 13.31L21.03 13.31Q20.24 13.68 19.24 13.68L19.24 13.68L19.24 13.68Q18.30 13.68 17.59 13.35L17.59 13.35L17.59 13.35Q16.88 13.02 16.41 12.47L16.41 12.47L16.41 12.47Q15.95 11.93 15.72 11.24L15.72 11.24L15.72 11.24Q15.48 10.54 15.50 9.82L15.50 9.82L15.50 9.82Q15.51 9.10 15.78 8.41L15.78 8.41L15.78 8.41Q16.04 7.71 16.55 7.18L16.55 7.18L16.55 7.18Q17.11 6.58 17.86 6.33L17.86 6.33L17.86 6.33Q18.61 6.08 19.39 6.08L19.39 6.08L19.39 6.08Q20.26 6.08 20.89 6.37L20.89 6.37L20.89 6.37Q21.52 6.66 21.91 7.12L21.91 7.12L21.91 7.12Q22.30 7.57 22.43 8.13L22.43 8.13L22.43 8.13Q22.55 8.68 22.41 9.20L22.41 9.20L22.41 9.20Q22.26 9.72 21.83 10.13L21.83 10.13L21.83 10.13Q21.39 10.54 20.65 10.72ZM27.29 8.50L27.29 8.50L27.29 8.50Q27.17 8.23 26.98 8.07L26.98 8.07L26.98 8.07Q26.78 7.91 26.55 7.83L26.55 7.83L26.55 7.83Q26.32 7.74 26.10 7.74L26.10 7.74L26.10 7.74Q25.89 7.73 25.75 7.78L25.75 7.78L25.75 7.78Q25.49 7.87 25.42 8.07L25.42 8.07L25.42 8.07Q25.34 8.27 25.49 8.46L25.49 8.46L25.49 8.46Q25.62 8.60 25.89 8.73L25.89 8.73L25.89 8.73Q26.17 8.86 26.50 9.02L26.50 9.02L26.50 9.02Q26.84 9.18 27.20 9.39L27.20 9.39L27.20 9.39Q27.55 9.59 27.85 9.87L27.85 9.87L27.85 9.87Q28.14 10.15 28.33 10.53L28.33 10.53L28.33 10.53Q28.52 10.91 28.52 11.42L28.52 11.42L28.52 11.42Q28.52 12.03 28.25 12.48L28.25 12.48L28.25 12.48Q27.99 12.94 27.55 13.22L27.55 13.22L27.55 13.22Q27.10 13.50 26.55 13.60L26.55 13.60L26.55 13.60Q26.00 13.71 25.43 13.62L25.43 13.62L25.43 13.62Q24.86 13.54 24.33 13.24L24.33 13.24L24.33 13.24Q23.80 12.94 23.41 12.42L23.41 12.42L24.53 11.21L24.53 11.21Q24.88 11.63 25.26 11.82L25.26 11.82L25.26 11.82Q25.65 12.00 25.98 12.02L25.98 12.02L25.98 12.02Q26.31 12.04 26.53 11.92L26.53 11.92L26.53 11.92Q26.75 11.80 26.80 11.60L26.80 11.60L26.80 11.60Q26.85 11.40 26.68 11.15L26.68 11.15L26.68 11.15Q26.52 10.91 26.04 10.67L26.04 10.67L26.04 10.67Q25.59 10.44 25.16 10.21L25.16 10.21L25.16 10.21Q24.74 9.97 24.41 9.67L24.41 9.67L24.41 9.67Q24.08 9.38 23.88 9.02L23.88 9.02L23.88 9.02Q23.67 8.65 23.67 8.16L23.67 8.16L23.67 8.16Q23.67 7.66 23.88 7.27L23.88 7.27L23.88 7.27Q24.09 6.87 24.44 6.61L24.44 6.61L24.44 6.61Q24.79 6.34 25.24 6.22L25.24 6.22L25.24 6.22Q25.69 6.09 26.17 6.10L26.17 6.10L26.17 6.10Q26.98 6.15 27.41 6.46L27.41 6.46L27.41 6.46Q27.83 6.78 27.94 7.18L27.94 7.18L27.94 7.18Q28.04 7.57 27.87 7.95L27.87 7.95L27.87 7.95Q27.69 8.33 27.29 8.50ZM30.39 6.33L30.39 5.15L30.39 5.15Q30.39 4.76 30.54 4.49L30.54 4.49L30.54 4.49Q30.69 4.21 30.93 4.05L30.93 4.05L30.93 4.05Q31.18 3.88 31.50 3.80L31.50 3.80L31.50 3.80Q31.82 3.72 32.16 3.72L32.16 3.72L32.16 6.33L33.78 6.33L33.78 6.33Q33.78 6.61 33.73 6.87L33.73 6.87L33.73 6.87Q33.68 7.14 33.54 7.36L33.54 7.36L33.54 7.36Q33.40 7.57 33.17 7.71L33.17 7.71L33.17 7.71Q32.93 7.84 32.55 7.84L32.55 7.84L32.16 7.84L32.16 11.80L32.16 11.80Q32.16 12.03 32.33 12.12L32.33 12.12L32.33 12.12Q32.49 12.21 32.72 12.20L32.72 12.20L32.72 12.20Q32.94 12.19 33.17 12.10L33.17 12.10L33.17 12.10Q33.39 12.00 33.49 11.83L33.49 11.83L33.49 11.83Q33.67 12.29 33.51 12.65L33.51 12.65L33.51 12.65Q33.35 13.01 33.00 13.22L33.00 13.22L33.00 13.22Q32.66 13.44 32.21 13.50L32.21 13.50L32.21 13.50Q31.75 13.57 31.35 13.43L31.35 13.43L31.35 13.43Q30.95 13.30 30.67 12.96L30.67 12.96L30.67 12.96Q30.39 12.61 30.39 12.03L30.39 12.03L30.39 7.84L29.50 7.84L29.50 6.33L30.39 6.33ZM40.31 13.52L40.31 12.73L40.31 12.73Q39.77 13.24 39.15 13.48L39.15 13.48L39.15 13.48Q38.53 13.72 37.90 13.70L37.90 13.70L37.90 13.70Q37.27 13.68 36.67 13.41L36.67 13.41L36.67 13.41Q36.08 13.15 35.62 12.65L35.62 12.65L35.62 12.65Q35.17 12.15 34.89 11.46L34.89 11.46L34.89 11.46Q34.62 10.77 34.62 9.88L34.62 9.88L34.62 9.88Q34.62 9.04 34.92 8.33L34.92 8.33L34.92 8.33Q35.21 7.62 35.71 7.11L35.71 7.11L35.71 7.11Q36.20 6.61 36.84 6.34L36.84 6.34L36.84 6.34Q37.48 6.06 38.16 6.09L38.16 6.09L38.16 6.09Q38.84 6.12 39.24 6.39L39.24 6.39L39.24 6.39Q39.65 6.66 39.84 7.03L39.84 7.03L39.84 7.03Q40.03 7.39 40.03 7.76L40.03 7.76L40.03 7.76Q40.04 8.13 39.91 8.36L39.91 8.36L39.91 8.36Q39.68 8.01 39.24 7.89L39.24 7.89L39.24 7.89Q38.81 7.77 38.40 7.77L38.40 7.77L38.40 7.77Q37.76 7.77 37.32 8.09L37.32 8.09L37.32 8.09Q36.89 8.40 36.67 8.88L36.67 8.88L36.67 8.88Q36.44 9.35 36.43 9.91L36.43 9.91L36.43 9.91Q36.43 10.46 36.64 10.93L36.64 10.93L36.64 10.93Q36.86 11.41 37.30 11.73L37.30 11.73L37.30 11.73Q37.74 12.04 38.40 12.04L38.40 12.04L38.40 12.04Q38.96 12.04 39.33 11.79L39.33 11.79L39.33 11.79Q39.69 11.54 39.91 11.14L39.91 11.14L39.91 11.14Q40.12 10.74 40.21 10.24L40.21 10.24L40.21 10.24Q40.31 9.74 40.31 9.25L40.31 9.25L40.31 7.04L40.31 6.27L42.13 6.27L42.13 13.52L40.31 13.52ZM44.28 6.33L44.28 5.15L44.28 5.15Q44.28 4.76 44.43 4.49L44.43 4.49L44.43 4.49Q44.58 4.21 44.82 4.05L44.82 4.05L44.82 4.05Q45.07 3.88 45.39 3.80L45.39 3.80L45.39 3.80Q45.71 3.72 46.05 3.72L46.05 3.72L46.05 6.33L47.67 6.33L47.67 6.33Q47.67 6.61 47.62 6.87L47.62 6.87L47.62 6.87Q47.57 7.14 47.43 7.36L47.43 7.36L47.43 7.36Q47.29 7.57 47.05 7.71L47.05 7.71L47.05 7.71Q46.82 7.84 46.44 7.84L46.44 7.84L46.05 7.84L46.05 11.80L46.05 11.80Q46.05 12.03 46.21 12.12L46.21 12.12L46.21 12.12Q46.38 12.21 46.61 12.20L46.61 12.20L46.61 12.20Q46.83 12.19 47.05 12.10L47.05 12.10L47.05 12.10Q47.28 12.00 47.38 11.83L47.38 11.83L47.38 11.83Q47.56 12.29 47.40 12.65L47.40 12.65L47.40 12.65Q47.24 13.01 46.89 13.22L46.89 13.22L46.89 13.22Q46.55 13.44 46.09 13.50L46.09 13.50L46.09 13.50Q45.64 13.57 45.24 13.43L45.24 13.43L45.24 13.43Q44.84 13.30 44.56 12.96L44.56 12.96L44.56 12.96Q44.28 12.61 44.28 12.03L44.28 12.03L44.28 7.84L43.39 7.84L43.39 6.33L44.28 6.33ZM48.79 6.29L50.62 6.29L50.62 9.76L50.62 9.76Q50.62 10.01 50.63 10.30L50.63 10.30L50.63 10.30Q50.64 10.58 50.69 10.86L50.69 10.86L50.69 10.86Q50.74 11.13 50.86 11.37L50.86 11.37L50.86 11.37Q50.97 11.61 51.21 11.77L51.21 11.77L51.21 11.77Q51.37 11.89 51.57 11.94L51.57 11.94L51.57 11.94Q51.77 12.00 51.98 12.00L51.98 12.00L51.98 12.00Q52.19 12.00 52.39 11.94L52.39 11.94L52.39 11.94Q52.58 11.89 52.75 11.77L52.75 11.77L52.75 11.77Q52.99 11.62 53.11 11.39L53.11 11.39L53.11 11.39Q53.23 11.16 53.28 10.89L53.28 10.89L53.28 10.89Q53.33 10.63 53.33 10.35L53.33 10.35L53.33 10.35Q53.33 10.07 53.33 9.81L53.33 9.81L53.33 7.73L53.33 7.73Q53.31 6.97 53.82 6.60L53.82 6.60L53.82 6.60Q54.32 6.23 55.13 6.26L55.13 6.26L55.13 9.34L55.13 9.34Q55.15 10.29 55.07 10.93L55.07 10.93L55.07 10.93Q54.99 11.56 54.84 11.93L54.84 11.93L54.84 11.93Q54.43 12.87 53.69 13.27L53.69 13.27L53.69 13.27Q52.95 13.68 51.95 13.68L51.95 13.68L51.95 13.68Q50.88 13.68 50.11 13.20L50.11 13.20L50.11 13.20Q49.34 12.73 49 11.68L49 11.68L49 11.68Q48.90 11.35 48.85 10.80L48.85 10.80L48.85 10.80Q48.79 10.25 48.79 9.59L48.79 9.59L48.79 6.29ZM60.14 8.50L60.14 8.50L60.14 8.50Q60.03 8.23 59.84 8.07L59.84 8.07L59.84 8.07Q59.64 7.91 59.41 7.83L59.41 7.83L59.41 7.83Q59.18 7.74 58.96 7.74L58.96 7.74L58.96 7.74Q58.74 7.73 58.60 7.78L58.60 7.78L58.60 7.78Q58.35 7.87 58.28 8.07L58.28 8.07L58.28 8.07Q58.20 8.27 58.35 8.46L58.35 8.46L58.35 8.46Q58.48 8.60 58.75 8.73L58.75 8.73L58.75 8.73Q59.02 8.86 59.36 9.02L59.36 9.02L59.36 9.02Q59.70 9.18 60.05 9.39L60.05 9.39L60.05 9.39Q60.41 9.59 60.70 9.87L60.70 9.87L60.70 9.87Q61.00 10.15 61.19 10.53L61.19 10.53L61.19 10.53Q61.38 10.91 61.38 11.42L61.38 11.42L61.38 11.42Q61.38 12.03 61.11 12.48L61.11 12.48L61.11 12.48Q60.84 12.94 60.40 13.22L60.40 13.22L60.40 13.22Q59.96 13.50 59.41 13.60L59.41 13.60L59.41 13.60Q58.86 13.71 58.29 13.62L58.29 13.62L58.29 13.62Q57.72 13.54 57.19 13.24L57.19 13.24L57.19 13.24Q56.66 12.94 56.27 12.42L56.27 12.42L57.39 11.21L57.39 11.21Q57.74 11.63 58.12 11.82L58.12 11.82L58.12 11.82Q58.51 12.00 58.84 12.02L58.84 12.02L58.84 12.02Q59.16 12.04 59.39 11.92L59.39 11.92L59.39 11.92Q59.61 11.80 59.66 11.60L59.66 11.60L59.66 11.60Q59.71 11.40 59.54 11.15L59.54 11.15L59.54 11.15Q59.37 10.91 58.90 10.67L58.90 10.67L58.90 10.67Q58.45 10.44 58.02 10.21L58.02 10.21L58.02 10.21Q57.60 9.97 57.27 9.67L57.27 9.67L57.27 9.67Q56.94 9.38 56.74 9.02L56.74 9.02L56.74 9.02Q56.53 8.65 56.53 8.16L56.53 8.16L56.53 8.16Q56.53 7.66 56.74 7.27L56.74 7.27L56.74 7.27Q56.95 6.87 57.30 6.61L57.30 6.61L57.30 6.61Q57.65 6.34 58.10 6.22L58.10 6.22L58.10 6.22Q58.55 6.09 59.02 6.10L59.02 6.10L59.02 6.10Q59.84 6.15 60.26 6.46L60.26 6.46L60.26 6.46Q60.69 6.78 60.80 7.18L60.80 7.18L60.80 7.18Q60.90 7.57 60.73 7.95L60.73 7.95L60.73 7.95Q60.55 8.33 60.14 8.50Z"></path></g><!----><g data-v-423bf9ae="" id="94d2ff14-10ab-4657-a46a-7281268067b8" transform="matrix(1.0845987543252087,0,0,1.0845987543252087,-15.5896759689765,-8.719935418670644)" stroke="none" fill="white"><path d="M80.133 35.526C68.328 13.378 33.769 8.51 33.769 8.51s15.956 18.479-4.44 33.072c-12.893 9.225-18.011 21.199-12.481 34.294C21.077 85.9 30.014 89.975 39.653 91.49c-2.455-4.955-3.09-12.102-1.263-19.447.189-.764.402-1.508.635-2.236 2.711 4.344 7.134 6.734 11.471 5.637 5.931-1.504 9.414-8.93 7.78-16.582a17.245 17.245 0 0 0-1.786-4.752c.236.049.474.078.708.148 7.398 2.189 10.975 13.705 7.983 25.721-.966 3.893-2.513 7.352-4.402 10.188 12.706-4.246 21.169-14.885 23.507-24.369 2.442-9.909.579-21.391-4.153-30.272z"></path></g><!----></svg>