<?xml version="1.0" encoding="UTF-8"?>
<svg width="1458px" height="296px" viewBox="0 0 1458 296" version="1.1" xmlns="http://www.w3.org/2000/svg" xmlns:xlink="http://www.w3.org/1999/xlink">
    <!-- Generator: Sketch 64 (93537) - https://sketch.com -->
    <title>default-monochrome-white</title>
    <desc>Created with Sketch.</desc>
    <defs>
        <linearGradient x1="0%" y1="48.5245721%" x2="100%" y2="51.4754279%" id="linearGradient-1">
            <stop stop-color="#E68500" offset="0%"></stop>
            <stop stop-color="#ED7F0A" offset="28.6475929%"></stop>
            <stop stop-color="#F58B11" offset="69.5840372%"></stop>
            <stop stop-color="#FAAC17" offset="100%"></stop>
        </linearGradient>
        <linearGradient x1="13.6838217%" y1="0%" x2="86.3161783%" y2="100%" id="linearGradient-2">
            <stop stop-color="#E63600" offset="0%"></stop>
            <stop stop-color="#ED610A" offset="28.6475929%"></stop>
            <stop stop-color="#F58B11" offset="69.5840372%"></stop>
            <stop stop-color="#FAAC17" offset="100%"></stop>
        </linearGradient>
    </defs>
    <g id="Page-1" stroke="none" stroke-width="1" fill="none" fill-rule="evenodd">
        <g id="default-monochrome-white" transform="translate(-1.000000, 0.000000)" fill-rule="nonzero">
            <g id="262995a5-d974-4401-a479-8333f463c539" transform="translate(316.226845, 48.053613)" fill="url(#linearGradient-1)">
                <path d="M0.173391741,85.5200204 L0.173391741,56.3503673 L12.2176356,56.3503673 L12.2176356,56.3503673 C12.2176356,51.7083149 12.2176356,47.1917235 12.2176356,42.8005929 L12.2176356,42.8005929 L12.2176356,42.8005929 C12.0921747,38.2840014 12.2176356,34.0810622 12.5940182,30.1917751 L12.5940182,30.1917751 L12.5940182,30.1917751 C13.0958617,26.1770271 13.848627,22.4759313 14.852314,19.0884878 L14.852314,19.0884878 L14.852314,19.0884878 C15.7305401,15.826505 17.2360706,12.8781745 19.3689054,10.2434962 L19.3689054,10.2434962 L19.3689054,10.2434962 C21.8781229,7.23243519 25.202836,4.91140902 29.3430449,3.28041767 L29.3430449,3.28041767 L29.3430449,3.28041767 C33.4832537,1.52396543 38.8780713,0.520278444 45.5274976,0.269356697 L45.5274976,0.269356697 L45.5274976,0.269356697 C52.6787674,0.0184349491 59.2654633,0.959391502 65.2875852,3.09222636 L65.2875852,3.09222636 L65.2875852,3.09222636 C71.1842463,5.22506121 75.7635682,8.17339174 79.0255509,11.937218 L79.0255509,11.937218 L79.0255509,11.937218 C82.2875336,15.7010442 83.918525,20.0294443 83.918525,24.9224184 L83.918525,24.9224184 L83.918525,24.9224184 C83.7930641,29.8153925 81.2838466,35.0220187 76.3908725,40.5422972 L76.3908725,40.5422972 L76.3908725,40.5422972 C75.1362638,37.0293927 72.8779681,34.206523 69.6159853,32.0736882 L69.6159853,32.0736882 L69.6159853,32.0736882 C66.3540026,29.9408533 63.0292895,28.8117055 59.6418459,28.6862446 L59.6418459,28.6862446 L59.6418459,28.6862446 C56.1289414,28.4353228 53.05515,29.2508185 50.4204717,31.1327316 L50.4204717,31.1327316 L50.4204717,31.1327316 C47.7857933,33.0146447 46.4684541,36.1511666 46.4684541,40.5422972 L46.4684541,40.5422972 L46.4684541,56.3503673 L80.3428901,56.3503673 L80.3428901,56.3503673 C80.3428901,65.1326284 77.8336726,72.2211678 72.8152376,77.6159853 L72.8152376,77.6159853 L72.8152376,77.6159853 C67.9222636,82.885342 61.7746807,85.5200204 54.3724892,85.5200204 L54.3724892,85.5200204 L46.4684541,85.5200204 L46.4684541,192.977259 L12.2176356,192.977259 L12.2176356,85.5200204 L0.173391741,85.5200204 Z M104.995952,192.977259 L104.995952,84.2026812 L104.995952,84.2026812 C105.372334,78.9333245 106.501482,74.5421939 108.383395,71.0292895 L108.383395,71.0292895 L108.383395,71.0292895 C110.139848,67.516385 112.523604,64.6935154 115.534665,62.5606805 L115.534665,62.5606805 L115.534665,62.5606805 C118.545726,60.5533065 121.9959,59.047776 125.885187,58.044089 L125.885187,58.044089 L125.885187,58.044089 C129.899935,57.0404021 134.291066,56.5385586 139.058579,56.5385586 L139.058579,56.5385586 L139.058579,192.977259 L104.995952,192.977259 Z M122.121361,0.457548007 L122.121361,0.457548007 L122.121361,0.457548007 C128.143483,0.457548007 133.224648,2.6531133 137.364857,7.04424388 L137.364857,7.04424388 L137.364857,7.04424388 C141.755988,11.3099136 143.951553,16.5165398 143.951553,22.6641227 L143.951553,22.6641227 L143.951553,22.6641227 C143.951553,28.8117055 141.881449,34.0810622 137.74124,38.4721927 L137.74124,38.4721927 L137.74124,38.4721927 C135.232022,40.8559493 132.346422,42.5496711 129.084439,43.5533581 L129.084439,43.5533581 L129.084439,43.5533581 C125.822457,44.5570451 122.623204,45.4980017 119.486683,46.3762278 L119.486683,46.3762278 L119.486683,46.3762278 C116.2247,47.3799148 113.213639,48.5717931 110.4535,49.9518627 L110.4535,49.9518627 L110.4535,49.9518627 C107.693361,51.2064714 105.811447,53.3393063 104.80776,56.3503673 L104.80776,56.3503673 L104.80776,56.3503673 C103.929534,53.4647672 102.988578,49.8264018 101.984891,45.4352712 L101.984891,45.4352712 L101.984891,45.4352712 C100.981204,41.0441407 100.353899,36.5275492 100.102978,31.8854969 L100.102978,31.8854969 L100.102978,31.8854969 C99.8520559,27.1179837 100.102978,22.4759313 100.855743,17.9593399 L100.855743,17.9593399 L100.855743,17.9593399 C101.733969,13.4427484 103.678613,9.74165266 106.689674,6.85605257 L106.689674,6.85605257 L106.689674,6.85605257 C110.829882,2.59038286 115.973778,0.457548007 122.121361,0.457548007 Z M170.298337,192.977259 L170.298337,55.9739846 L199.844372,55.9739846 L199.844372,73.4757765 L199.844372,73.4757765 C202.855433,67.3281937 206.68199,62.4352196 211.324042,58.7968543 L211.324042,58.7968543 L211.324042,58.7968543 C215.966095,55.158489 221.10999,53.2138454 226.75573,52.9629237 L226.75573,52.9629237 L226.75573,52.9629237 C234.157921,52.3356193 240.117313,53.6529585 244.633904,56.9149412 L244.633904,56.9149412 L244.633904,56.9149412 C249.275957,60.1769239 252.475209,64.1289414 254.231661,68.7709938 L254.231661,68.7709938 L254.231661,68.7709938 C256.113574,73.4130461 256.615418,78.1805593 255.737192,83.0735334 L255.737192,83.0735334 L255.737192,83.0735334 C254.858965,87.8410466 252.475209,91.6676032 248.585922,94.5532033 L248.585922,94.5532033 L248.585922,94.5532033 C247.080391,90.1620727 244.06933,87.2764726 239.552739,85.896403 L239.552739,85.896403 L239.552739,85.896403 C235.036147,84.6417943 230.331365,84.8299856 225.438391,86.4609769 L225.438391,86.4609769 L225.438391,86.4609769 C220.545416,88.0919683 216.091555,91.2284901 212.076807,95.8705425 L212.076807,95.8705425 L212.076807,95.8705425 C208.18752,100.387134 205.866494,106.346525 205.113729,113.748717 L205.113729,113.748717 L205.113729,113.748717 C204.737346,118.014387 204.549155,122.217326 204.549155,126.357535 L204.549155,126.357535 L204.549155,126.357535 C204.549155,130.372283 204.549155,134.136109 204.549155,137.649013 L204.549155,137.649013 L204.549155,192.977259 L170.298337,192.977259 Z M375.615056,140.283692 L375.615056,140.283692 L375.615056,140.283692 C366.08003,142.792909 357.42323,143.671135 349.644656,142.91837 L349.644656,142.91837 L349.644656,142.91837 C341.866081,142.291066 335.467577,140.409153 330.449142,137.272631 L330.449142,137.272631 L330.449142,137.272631 C325.430707,134.26157 322.105994,130.184091 320.475002,125.040196 L320.475002,125.040196 L320.475002,125.040196 C318.71855,119.770839 319.157663,113.874178 321.792342,107.350212 L321.792342,107.350212 L321.792342,107.350212 C327.31262,111.992265 333.648394,114.501482 340.799664,114.877865 L340.799664,114.877865 L340.799664,114.877865 C348.076395,115.379708 355.039473,115.254247 361.688899,114.501482 L361.688899,114.501482 L361.688899,114.501482 C367.334639,113.999639 371.600308,112.80776 374.485909,110.925847 L374.485909,110.925847 L374.485909,110.925847 C377.371509,108.918473 379.127961,106.660178 379.755265,104.15096 L379.755265,104.15096 L379.755265,104.15096 C380.50803,101.641743 380.257109,98.9443339 379.0025,96.0587338 L379.0025,96.0587338 L379.0025,96.0587338 C377.747891,93.2985946 375.803248,90.7893771 373.168569,88.5310814 L373.168569,88.5310814 L373.168569,88.5310814 C370.40843,86.1473248 367.020987,84.2654117 363.006239,82.885342 L363.006239,82.885342 L363.006239,82.885342 C359.116951,81.5052724 354.788551,80.8779681 350.021038,81.0034289 L350.021038,81.0034289 L350.021038,81.0034289 C345.002603,81.3798116 340.17236,82.6344203 335.530307,84.7672552 L335.530307,84.7672552 L335.530307,84.7672552 C331.013716,86.90009 326.998968,89.7856901 323.486063,93.4240554 L323.486063,93.4240554 L323.486063,93.4240554 C319.973159,97.1878817 317.150289,101.516282 315.017454,106.409256 L315.017454,106.409256 L315.017454,106.409256 C312.88462,111.30223 311.755472,116.759778 311.630011,122.7819 L311.630011,122.7819 L311.630011,122.7819 C311.379089,127.674874 311.943663,132.505118 313.323733,137.272631 L313.323733,137.272631 L313.323733,137.272631 C314.578341,141.914683 316.522985,146.243083 319.157663,150.257831 L319.157663,150.257831 L319.157663,150.257831 C321.792342,154.147118 324.991594,157.471831 328.75542,160.231971 L328.75542,160.231971 L328.75542,160.231971 C332.393785,162.99211 336.596725,164.685832 341.364238,165.313136 L341.364238,165.313136 L341.364238,165.313136 C348.013664,166.567745 354.851282,166.128632 361.877091,163.995797 L361.877091,163.995797 L361.877091,163.995797 C368.9029,161.988423 375.175943,158.161866 380.696222,152.516127 L380.696222,152.516127 L408.360344,165.87771 L408.360344,165.87771 C401.083614,176.667345 392.552274,184.383189 382.766326,189.025241 L382.766326,189.025241 L382.766326,189.025241 C372.854917,193.667294 361.626169,195.98832 349.080082,195.98832 L349.080082,195.98832 L349.080082,195.98832 C337.286759,195.98832 326.936237,193.918215 318.028515,189.778006 L318.028515,189.778006 L318.028515,189.778006 C309.120793,185.637798 301.718602,180.117519 295.821941,173.217171 L295.821941,173.217171 L295.821941,173.217171 C290.05074,166.442284 285.72234,158.72644 282.83674,150.06964 L282.83674,150.06964 L282.83674,150.06964 C279.825679,141.287379 278.44561,132.379657 278.696531,123.346474 L278.696531,123.346474 L278.696531,123.346474 C278.821992,114.313291 280.578445,105.468299 283.965888,96.811499 L283.965888,96.811499 L283.965888,96.811499 C287.227871,88.0292379 292.058114,80.3133941 298.456619,73.6639678 L298.456619,73.6639678 L298.456619,73.6639678 C305.482428,66.1363154 313.700115,60.8042283 323.109681,57.6677064 L323.109681,57.6677064 L323.109681,57.6677064 C332.519246,54.5311846 342.117003,52.9629237 351.902951,52.9629237 L351.902951,52.9629237 L351.902951,52.9629237 C362.818047,52.9629237 372.227613,54.7821063 380.131648,58.4204717 L380.131648,58.4204717 L380.131648,58.4204717 C388.035683,62.058837 394.434187,66.7636198 399.327162,72.53482 L399.327162,72.53482 L399.327162,72.53482 C404.220136,78.1805593 407.482118,84.5163334 409.11311,91.5421423 L409.11311,91.5421423 L409.11311,91.5421423 C410.61864,98.4424904 410.493179,105.154647 408.736727,111.678613 L408.736727,111.678613 L408.736727,111.678613 C406.854814,118.202578 403.216449,124.036509 397.821631,129.180404 L397.821631,129.180404 L397.821631,129.180404 C392.301353,134.3243 384.899161,138.025396 375.615056,140.283692 Z M500.574087,98.5052208 L500.574087,98.5052208 L500.574087,98.5052208 C499.068556,95.1177772 497.123913,92.4203684 494.740156,90.4129945 L494.740156,90.4129945 L494.740156,90.4129945 C492.230938,88.4056205 489.53353,86.90009 486.64793,85.896403 L486.64793,85.896403 L486.64793,85.896403 C483.76233,84.7672552 480.93946,84.2026812 478.179321,84.2026812 L478.179321,84.2026812 L478.179321,84.2026812 C475.544642,84.0772203 473.349077,84.3281421 471.592625,84.9554465 L471.592625,84.9554465 L471.592625,84.9554465 C468.330642,86.0845943 466.260538,87.903777 465.382312,90.4129945 L465.382312,90.4129945 L465.382312,90.4129945 C464.378625,92.9222119 464.817738,95.368699 466.699651,97.7524556 L466.699651,97.7524556 L466.699651,97.7524556 C468.330642,99.5089078 470.83986,101.20263 474.227303,102.833621 L474.227303,102.833621 L474.227303,102.833621 C477.740208,104.464612 481.566764,106.283795 485.706973,108.291169 L485.706973,108.291169 L485.706973,108.291169 C489.972643,110.298543 494.363773,112.619569 498.880365,115.254247 L498.880365,115.254247 L498.880365,115.254247 C503.271495,117.763465 507.348974,120.774526 511.1128,124.28743 L511.1128,124.28743 L511.1128,124.28743 C514.751165,127.800335 517.762226,131.940544 520.145983,136.708057 L520.145983,136.708057 L520.145983,136.708057 C522.52974,141.47557 523.721618,147.058579 523.721618,153.457084 L523.721618,153.457084 L523.721618,153.457084 C523.721618,161.110197 522.027896,167.759623 518.640452,173.405362 L518.640452,173.405362 L518.640452,173.405362 C515.37847,179.176563 510.987339,183.818615 505.467061,187.331519 L505.467061,187.331519 L505.467061,187.331519 C499.821321,190.844424 493.548278,193.22818 486.64793,194.482789 L486.64793,194.482789 L486.64793,194.482789 C479.747582,195.862859 472.721773,195.98832 465.570503,194.859172 L465.570503,194.859172 L465.570503,194.859172 C458.419233,193.855485 451.518885,191.471728 444.869459,187.707902 L444.869459,187.707902 L444.869459,187.707902 C438.220032,183.944076 432.448832,178.80018 427.555858,172.276215 L427.555858,172.276215 L448.633285,149.505066 L448.633285,149.505066 C453.024415,154.774423 457.603737,158.600979 462.371251,160.984736 L462.371251,160.984736 L462.371251,160.984736 C467.264225,163.243032 471.780816,164.49764 475.921025,164.748562 L475.921025,164.748562 L475.921025,164.748562 C480.061234,164.999484 483.511408,164.37218 486.271547,162.866649 L486.271547,162.866649 L486.271547,162.866649 C489.031686,161.361119 490.725408,159.353745 491.352712,156.844527 L491.352712,156.844527 L491.352712,156.844527 C491.980017,154.33531 491.227252,151.51244 489.094417,148.375918 L489.094417,148.375918 L489.094417,148.375918 C487.087043,145.364857 483.072295,142.353796 477.050173,139.342735 L477.050173,139.342735 L477.050173,139.342735 C471.404433,136.457135 465.884155,133.571535 460.489337,130.685935 L460.489337,130.685935 L460.489337,130.685935 C455.219981,127.674874 450.515198,124.28743 446.374989,120.523604 L446.374989,120.523604 L446.374989,120.523604 C442.23478,116.885239 438.910067,112.80776 436.40085,108.291169 L436.40085,108.291169 L436.40085,108.291169 C433.766171,103.649117 432.448832,98.2542991 432.448832,92.1067163 L432.448832,92.1067163 L432.448832,92.1067163 C432.448832,85.8336726 433.766171,80.2506637 436.40085,75.3576896 L436.40085,75.3576896 L436.40085,75.3576896 C439.035528,70.3392547 442.548433,66.1990458 446.939563,62.9370631 L446.939563,62.9370631 L446.939563,62.9370631 C451.330694,59.5496195 456.349129,57.1031325 461.994868,55.597602 L461.994868,55.597602 L461.994868,55.597602 C467.640607,53.9666107 473.474538,53.2138454 479.49666,53.3393063 L479.49666,53.3393063 L479.49666,53.3393063 C489.658991,53.9666107 497.437565,56.2249064 502.832382,60.1141935 L502.832382,60.1141935 L502.832382,60.1141935 C508.101739,64.1289414 511.426452,68.6455329 512.806522,73.6639678 L512.806522,73.6639678 L512.806522,73.6639678 C514.061131,78.5569419 513.622017,83.3871855 511.489183,88.1546987 L511.489183,88.1546987 L511.489183,88.1546987 C509.230887,92.9222119 505.592522,96.372386 500.574087,98.5052208 Z M558.913393,57.6677064 L558.913393,35.4611318 L558.913393,35.4611318 C558.913393,30.5681577 559.854349,26.4279489 561.736263,23.0405053 L561.736263,23.0405053 L561.736263,23.0405053 C563.618176,19.5276008 566.064663,16.7674616 569.075724,14.7600876 L569.075724,14.7600876 L569.075724,14.7600876 C572.212246,12.6272528 575.78788,11.0589918 579.802628,10.0553048 L579.802628,10.0553048 L579.802628,10.0553048 C583.817376,9.05161786 587.957585,8.54977436 592.223255,8.54977436 L592.223255,8.54977436 L592.223255,57.6677064 L622.710247,57.6677064 L622.710247,57.6677064 C622.710247,61.1806109 622.396595,64.5680545 621.769291,67.8300372 L621.769291,67.8300372 L621.769291,67.8300372 C621.141986,71.2174808 619.950108,74.2912722 618.193656,77.0514114 L618.193656,77.0514114 L618.193656,77.0514114 C616.437203,79.6860898 614.116177,81.8816551 611.230577,83.6381073 L611.230577,83.6381073 L611.230577,83.6381073 C608.219516,85.2690986 604.330229,86.0845943 599.562716,86.0845943 L599.562716,86.0845943 L592.223255,86.0845943 L592.223255,160.608353 L592.223255,160.608353 C592.223255,163.493953 593.289672,165.501327 595.422507,166.630475 L595.422507,166.630475 L595.422507,166.630475 C597.429881,167.759623 599.876368,168.261467 602.761968,168.136006 L602.761968,168.136006 L602.761968,168.136006 C605.522107,168.010545 608.344977,167.383241 611.230577,166.254093 L611.230577,166.254093 L611.230577,166.254093 C613.990716,164.999484 615.99809,163.305762 617.252699,161.172927 L617.252699,161.172927 L617.252699,161.172927 C619.510995,166.944127 619.636456,172.088023 617.629082,176.604615 L617.629082,176.604615 L617.629082,176.604615 C615.621708,181.121206 612.422456,184.696841 608.031325,187.331519 L608.031325,187.331519 L608.031325,187.331519 C603.765655,190.091659 598.809951,191.848111 593.164211,192.600876 L593.164211,192.600876 L593.164211,192.600876 C587.393011,193.479102 581.998194,193.039989 576.979759,191.283537 L576.979759,191.283537 L576.979759,191.283537 C571.961324,189.652546 567.695654,186.704215 564.18275,182.438545 L564.18275,182.438545 L564.18275,182.438545 C560.669845,178.047415 558.913393,172.213484 558.913393,164.936753 L558.913393,164.936753 L558.913393,86.0845943 L542.164366,86.0845943 L542.164366,57.6677064 L558.913393,57.6677064 Z M745.599173,192.977259 L745.599173,178.110145 L745.599173,178.110145 C738.824286,184.50865 731.547555,189.213433 723.768981,192.224493 L723.768981,192.224493 L723.768981,192.224493 C715.990407,195.235554 708.149102,196.615624 700.245067,196.364702 L700.245067,196.364702 L700.245067,196.364702 C692.341032,196.113781 684.625188,194.294598 677.097536,190.907154 L677.097536,190.907154 L677.097536,190.907154 C669.695344,187.645172 663.108649,182.877658 657.337448,176.604615 L657.337448,176.604615 L657.337448,176.604615 C651.691709,170.331571 647.112387,162.866649 643.599483,154.209849 L643.599483,154.209849 L643.599483,154.209849 C640.212039,145.553048 638.518317,135.641639 638.518317,124.475622 L638.518317,124.475622 L638.518317,124.475622 C638.518317,113.936908 640.40023,104.213691 644.164057,95.3059685 L644.164057,95.3059685 L644.164057,95.3059685 C647.802422,86.3982465 652.758126,78.7451332 659.03117,72.3466287 L659.03117,72.3466287 L659.03117,72.3466287 C665.178753,66.073585 672.267292,61.2433413 680.296788,57.8558977 L680.296788,57.8558977 L680.296788,57.8558977 C688.326284,54.3429933 696.606702,52.7747324 705.138041,53.151115 L705.138041,53.151115 L705.138041,53.151115 C713.669381,53.5274976 720.444268,55.4094107 725.462703,58.7968543 L725.462703,58.7968543 L725.462703,58.7968543 C730.606599,62.1842979 734.370425,66.1990458 736.754181,70.8410982 L736.754181,70.8410982 L736.754181,70.8410982 C739.137938,75.3576896 740.329816,79.9370115 740.329816,84.5790638 L740.329816,84.5790638 L740.329816,84.5790638 C740.455277,89.2211162 739.702512,92.9849424 738.071521,95.8705425 L738.071521,95.8705425 L738.071521,95.8705425 C735.18592,91.4794119 730.982981,88.5310814 725.462703,87.0255509 L725.462703,87.0255509 L725.462703,87.0255509 C720.067885,85.5200204 714.798528,84.7672552 709.654633,84.7672552 L709.654633,84.7672552 L709.654633,84.7672552 C701.625137,84.7672552 694.85025,86.7746291 689.329971,90.7893771 L689.329971,90.7893771 L689.329971,90.7893771 C683.935154,94.6786642 679.857675,99.6343687 677.097536,105.656491 L677.097536,105.656491 L677.097536,105.656491 C674.211936,111.553152 672.706405,118.014387 672.580944,125.040196 L672.580944,125.040196 L672.580944,125.040196 C672.580944,131.940544 673.898284,138.339048 676.532962,144.235709 L676.532962,144.235709 L676.532962,144.235709 C679.293101,150.257831 683.43331,155.276266 688.953589,159.291014 L688.953589,159.291014 L688.953589,159.291014 C694.473867,163.180301 701.374215,165.124945 709.654633,165.124945 L709.654633,165.124945 L709.654633,165.124945 C716.680442,165.124945 722.514372,163.556684 727.156425,160.420162 L727.156425,160.420162 L727.156425,160.420162 C731.673016,157.28364 735.311381,153.206162 738.071521,148.187727 L738.071521,148.187727 L738.071521,148.187727 C740.706199,143.169292 742.588112,137.523553 743.71726,131.250509 L743.71726,131.250509 L743.71726,131.250509 C744.971869,124.977465 745.599173,118.767152 745.599173,112.619569 L745.599173,112.619569 L745.599173,71.0292895 L745.599173,56.5385586 L779.849992,56.5385586 L779.849992,192.977259 L745.599173,192.977259 Z M820.311123,57.6677064 L820.311123,35.4611318 L820.311123,35.4611318 C820.311123,30.5681577 821.25208,26.4279489 823.133993,23.0405053 L823.133993,23.0405053 L823.133993,23.0405053 C825.015906,19.5276008 827.462393,16.7674616 830.473454,14.7600876 L830.473454,14.7600876 L830.473454,14.7600876 C833.609976,12.6272528 837.185611,11.0589918 841.200359,10.0553048 L841.200359,10.0553048 L841.200359,10.0553048 C845.215107,9.05161786 849.355316,8.54977436 853.620985,8.54977436 L853.620985,8.54977436 L853.620985,57.6677064 L884.107978,57.6677064 L884.107978,57.6677064 C884.107978,61.1806109 883.794325,64.5680545 883.167021,67.8300372 L883.167021,67.8300372 L883.167021,67.8300372 C882.539717,71.2174808 881.347838,74.2912722 879.591386,77.0514114 L879.591386,77.0514114 L879.591386,77.0514114 C877.834934,79.6860898 875.451177,81.8816551 872.440116,83.6381073 L872.440116,83.6381073 L872.440116,83.6381073 C869.554516,85.2690986 865.72796,86.0845943 860.960446,86.0845943 L860.960446,86.0845943 L853.620985,86.0845943 L853.620985,160.608353 L853.620985,160.608353 C853.620985,163.493953 854.624672,165.501327 856.632046,166.630475 L856.632046,166.630475 L856.632046,166.630475 C858.764881,167.759623 861.274099,168.261467 864.159699,168.136006 L864.159699,168.136006 L864.159699,168.136006 C866.919838,168.010545 869.679977,167.383241 872.440116,166.254093 L872.440116,166.254093 L872.440116,166.254093 C875.325716,164.999484 877.395821,163.305762 878.65043,161.172927 L878.65043,161.172927 L878.65043,161.172927 C880.908725,166.944127 881.034186,172.088023 879.026812,176.604615 L879.026812,176.604615 L879.026812,176.604615 C877.019438,181.121206 873.820186,184.696841 869.429055,187.331519 L869.429055,187.331519 L869.429055,187.331519 C865.163386,190.091659 860.144951,191.848111 854.373751,192.600876 L854.373751,192.600876 L854.373751,192.600876 C848.728011,193.479102 843.395924,193.039989 838.377489,191.283537 L838.377489,191.283537 L838.377489,191.283537 C833.359054,189.652546 829.093384,186.704215 825.58048,182.438545 L825.58048,182.438545 L825.58048,182.438545 C822.067576,178.047415 820.311123,172.213484 820.311123,164.936753 L820.311123,164.936753 L820.311123,86.0845943 L803.562097,86.0845943 L803.562097,57.6677064 L820.311123,57.6677064 Z M905.185404,56.9149412 L939.624414,56.9149412 L939.624414,122.217326 L939.624414,122.217326 C939.624414,125.353848 939.687145,128.741291 939.812606,132.379657 L939.812606,132.379657 L939.812606,132.379657 C939.938066,135.892561 940.314449,139.405466 940.941753,142.91837 L940.941753,142.91837 L940.941753,142.91837 C941.569058,146.305814 942.635475,149.505066 944.141006,152.516127 L944.141006,152.516127 L944.141006,152.516127 C945.521075,155.527188 947.716641,158.036405 950.727702,160.043779 L950.727702,160.043779 L950.727702,160.043779 C952.735076,161.54931 954.993371,162.615727 957.502589,163.243032 L957.502589,163.243032 L957.502589,163.243032 C960.011806,163.995797 962.583754,164.37218 965.218432,164.37218 L965.218432,164.37218 L965.218432,164.37218 C967.853111,164.37218 970.425059,163.995797 972.934276,163.243032 L972.934276,163.243032 L972.934276,163.243032 C975.318033,162.615727 977.576329,161.54931 979.709163,160.043779 L979.709163,160.043779 L979.709163,160.043779 C982.720224,158.161866 984.97852,155.77811 986.484051,152.89251 L986.484051,152.89251 L986.484051,152.89251 C987.989581,150.006909 989.055998,146.870388 989.683303,143.482944 L989.683303,143.482944 L989.683303,143.482944 C990.310607,140.220961 990.624259,136.833518 990.624259,133.320613 L990.624259,133.320613 L990.624259,133.320613 C990.624259,129.807709 990.624259,126.420265 990.624259,123.158283 L990.624259,123.158283 L990.624259,84.0144899 L990.624259,84.0144899 C990.373338,74.4794635 993.447129,67.3909241 999.845634,62.7488718 L999.845634,62.7488718 L999.845634,62.7488718 C1006.11868,58.1068195 1014.33636,55.9739846 1024.4987,56.3503673 L1024.4987,56.3503673 L1024.4987,114.313291 L1024.4987,114.313291 C1024.74962,126.232074 1024.37323,136.206213 1023.36955,144.235709 L1023.36955,144.235709 L1023.36955,144.235709 C1022.36586,152.139744 1020.92306,158.412788 1019.04115,163.05484 L1019.04115,163.05484 L1019.04115,163.05484 C1013.89725,174.848162 1006.68325,183.254041 997.399147,188.272476 L997.399147,188.272476 L997.399147,188.272476 C988.115042,193.416372 977.199946,195.98832 964.653859,195.98832 L964.653859,195.98832 L964.653859,195.98832 C951.229545,195.98832 939.687145,192.977259 930.026657,186.955137 L930.026657,186.955137 L930.026657,186.955137 C920.36617,181.058476 913.403092,171.523449 909.137422,158.350058 L909.137422,158.350058 L909.137422,158.350058 C907.882813,154.209849 906.941857,148.68957 906.314552,141.789222 L906.314552,141.789222 L906.314552,141.789222 C905.561787,134.888874 905.185404,127.298491 905.185404,119.018074 L905.185404,119.018074 L905.185404,56.9149412 Z M1118.78254,98.5052208 L1118.78254,98.5052208 L1118.78254,98.5052208 C1117.40247,95.1177772 1115.52056,92.4203684 1113.1368,90.4129945 L1113.1368,90.4129945 L1113.1368,90.4129945 C1110.62759,88.4056205 1107.93018,86.90009 1105.04458,85.896403 L1105.04458,85.896403 L1105.04458,85.896403 C1102.15898,84.7672552 1099.33611,84.2026812 1096.57597,84.2026812 L1096.57597,84.2026812 L1096.57597,84.2026812 C1093.81583,84.0772203 1091.55753,84.3281421 1089.80108,84.9554465 L1089.80108,84.9554465 L1089.80108,84.9554465 C1086.66456,86.0845943 1084.65718,87.903777 1083.77896,90.4129945 L1083.77896,90.4129945 L1083.77896,90.4129945 C1082.77527,92.9222119 1083.21438,95.368699 1085.0963,97.7524556 L1085.0963,97.7524556 L1085.0963,97.7524556 C1086.72729,99.5089078 1089.23651,101.20263 1092.62395,102.833621 L1092.62395,102.833621 L1092.62395,102.833621 C1096.01139,104.464612 1099.83795,106.283795 1104.10362,108.291169 L1104.10362,108.291169 L1104.10362,108.291169 C1108.36929,110.298543 1112.69769,112.619569 1117.08882,115.254247 L1117.08882,115.254247 L1117.08882,115.254247 C1121.60541,117.763465 1125.68289,120.774526 1129.32126,124.28743 L1129.32126,124.28743 L1129.32126,124.28743 C1133.08508,127.800335 1136.15887,131.940544 1138.54263,136.708057 L1138.54263,136.708057 L1138.54263,136.708057 C1140.92639,141.47557 1142.11826,147.058579 1142.11826,153.457084 L1142.11826,153.457084 L1142.11826,153.457084 C1142.11826,161.110197 1140.42454,167.759623 1137.0371,173.405362 L1137.0371,173.405362 L1137.0371,173.405362 C1133.64966,179.176563 1129.19579,183.818615 1123.67552,187.331519 L1123.67552,187.331519 L1123.67552,187.331519 C1118.15524,190.844424 1111.94492,193.22818 1105.04458,194.482789 L1105.04458,194.482789 L1105.04458,194.482789 C1098.14423,195.862859 1091.11842,195.98832 1083.96715,194.859172 L1083.96715,194.859172 L1083.96715,194.859172 C1076.81588,193.855485 1069.91553,191.471728 1063.26611,187.707902 L1063.26611,187.707902 L1063.26611,187.707902 C1056.61668,183.944076 1050.84548,178.80018 1045.9525,172.276215 L1045.9525,172.276215 L1067.02993,149.505066 L1067.02993,149.505066 C1071.42106,154.774423 1076.00038,158.600979 1080.7679,160.984736 L1080.7679,160.984736 L1080.7679,160.984736 C1085.66087,163.243032 1090.17746,164.49764 1094.31767,164.748562 L1094.31767,164.748562 L1094.31767,164.748562 C1098.33242,164.999484 1101.78259,164.37218 1104.66819,162.866649 L1104.66819,162.866649 L1104.66819,162.866649 C1107.42833,161.361119 1109.12205,159.353745 1109.74936,156.844527 L1109.74936,156.844527 L1109.74936,156.844527 C1110.37666,154.33531 1109.6239,151.51244 1107.49106,148.375918 L1107.49106,148.375918 L1107.49106,148.375918 C1105.35823,145.364857 1101.34348,142.353796 1095.44682,139.342735 L1095.44682,139.342735 L1095.44682,139.342735 C1089.80108,136.457135 1084.2808,133.571535 1078.88598,130.685935 L1078.88598,130.685935 L1078.88598,130.685935 C1073.61663,127.674874 1068.91184,124.28743 1064.77164,120.523604 L1064.77164,120.523604 L1064.77164,120.523604 C1060.63143,116.885239 1057.30671,112.80776 1054.7975,108.291169 L1054.7975,108.291169 L1054.7975,108.291169 C1052.16282,103.649117 1050.84548,98.2542991 1050.84548,92.1067163 L1050.84548,92.1067163 L1050.84548,92.1067163 C1050.84548,85.8336726 1052.16282,80.2506637 1054.7975,75.3576896 L1054.7975,75.3576896 L1054.7975,75.3576896 C1057.43217,70.3392547 1060.94508,66.1990458 1065.33621,62.9370631 L1065.33621,62.9370631 L1065.33621,62.9370631 C1069.72734,59.5496195 1074.74578,57.1031325 1080.39151,55.597602 L1080.39151,55.597602 L1080.39151,55.597602 C1086.03725,53.9666107 1091.80845,53.2138454 1097.70512,53.3393063 L1097.70512,53.3393063 L1097.70512,53.3393063 C1107.99291,53.9666107 1115.77148,56.2249064 1121.04084,60.1141935 L1121.04084,60.1141935 L1121.04084,60.1141935 C1126.43566,64.1289414 1129.8231,68.6455329 1131.20317,73.6639678 L1131.20317,73.6639678 L1131.20317,73.6639678 C1132.45778,78.5569419 1132.01866,83.3871855 1129.88583,88.1546987 L1129.88583,88.1546987 L1129.88583,88.1546987 C1127.62753,92.9222119 1123.92644,96.372386 1118.78254,98.5052208 Z" id="Shape"></path>
            </g>
            <g id="94d2ff14-10ab-4657-a46a-7281268067b8" transform="translate(0.944333, 0.101312)" fill="url(#linearGradient-2)">
                <path d="M232.47963,96.6067959 C190.619271,18.0703098 68.0735596,0.808452587 68.0735596,0.808452587 C68.0735596,0.808452587 124.653304,66.334718 52.3293842,118.081284 C6.61099357,150.793 -11.53736,193.25263 8.07193958,239.687309 C23.0679121,275.232268 54.7583842,289.682159 88.9381381,295.054326 C80.2327438,277.483969 77.981043,252.14081 84.4595585,226.095547 C85.1297497,223.386414 85.8850446,220.748201 86.7112592,218.166724 C96.3244258,233.570485 112.00832,242.04539 127.387259,238.155444 C148.418498,232.822282 160.769166,206.489794 154.975025,179.355913 C153.706805,173.457404 151.572643,167.779052 148.641895,162.50539 C149.478748,162.679143 150.322693,162.781977 151.152453,163.030196 C177.385654,170.792358 190.069644,211.627926 179.460055,254.236488 C176.034633,268.041009 170.548994,280.306573 163.850627,290.362988 C208.905918,275.306733 238.915593,237.580994 247.206107,203.950868 C255.865404,168.813698 249.259233,128.098693 232.47963,96.6067959 Z" id="Path"></path>
            </g>
        </g>
    </g>
</svg>